<?xml version="1.0"?>
<svg xmlns="http://www.w3.org/2000/svg" xmlns:xlink="http://www.w3.org/1999/xlink" xmlns:svgjs="http://svgjs.com/svgjs" version="1.1" width="512px" height="512px" x="0" y="0" viewBox="0 0 24 24" style="enable-background:new 0 0 512 512" xml:space="preserve"><g><path d="M23,7H18.191l.8-5.865a1,1,0,1,0-1.982-.27L16.173,7H9.191l.8-5.865A1,1,0,1,0,8.009.865L7.173,7H2A1,1,0,0,0,2,9H6.9l-.818,6H1a1,1,0,0,0,0,2H5.809l-.8,5.865a1,1,0,0,0,1.982.27L7.827,17h6.982l-.8,5.865a1,1,0,0,0,1.982.27L16.827,17H22a1,1,0,0,0,0-2H17.1l.818-6H23A1,1,0,0,0,23,7Zm-7.918,8H8.1l.818-6H15.9Z" fill="#d1d1d1" data-original="#000000"/></g></svg>
