<?xml version="1.0"?>
<svg xmlns="http://www.w3.org/2000/svg" xmlns:xlink="http://www.w3.org/1999/xlink" xmlns:svgjs="http://svgjs.com/svgjs" version="1.1" width="512px" height="512px" x="0" y="0" viewBox="0 0 24 24" style="enable-background:new 0 0 512 512" xml:space="preserve"><g><path d="M11.476,15a1,1,0,0,0-1,1v3a3,3,0,0,1-3,3H5a3,3,0,0,1-3-3V5A3,3,0,0,1,5,2H7.476a3,3,0,0,1,3,3V8a1,1,0,0,0,2,0V5a5.006,5.006,0,0,0-5-5H5A5.006,5.006,0,0,0,0,5V19a5.006,5.006,0,0,0,5,5H7.476a5.006,5.006,0,0,0,5-5V16A1,1,0,0,0,11.476,15Z" fill="#d1d1d1" data-original="#000000"/><path d="M22.867,9.879,18.281,5.293a1,1,0,1,0-1.414,1.414l4.262,4.263L6,11a1,1,0,0,0,0,2H6l15.188-.031-4.323,4.324a1,1,0,1,0,1.414,1.414l4.586-4.586A3,3,0,0,0,22.867,9.879Z" fill="#d1d1d1" data-original="#000000"/></g></svg>
